<svg width="135" height="32" viewBox="0 0 135 32" fill="none" xmlns="http://www.w3.org/2000/svg">
<path fill-rule="evenodd" clip-rule="evenodd" d="M0 0V31.0493H2.90258V24.445L6.55418 20.7974L16.3568 31.0821H20.4426L8.61487 18.7462L20.8106 6.58926H16.707L6.18907 17.0777L4.91973 18.3392L2.90258 20.3475V0H0ZM27.7558 11.593C29.7465 9.58894 32.1343 8.59336 34.9503 8.59336C37.7663 8.59336 40.1541 9.58894 42.1448 11.593C44.1356 13.597 45.1245 16.0008 45.1245 18.8357C45.1245 21.6705 44.1356 24.0743 42.1448 26.0784C40.1541 28.0824 37.7663 29.078 34.9503 29.078C32.1343 29.078 29.7465 28.0824 27.7558 26.0784C25.7651 24.0743 24.7761 21.6705 24.7761 18.8357C24.7761 16.0008 25.7651 13.597 27.7558 11.593ZM25.6998 28.1317C28.2566 30.7057 31.3502 32 34.9503 32C38.55 32 41.6384 30.7059 44.1845 28.1317C46.7416 25.5685 48.0271 22.4595 48.0271 18.8357C48.0271 15.2119 46.7416 12.1028 44.1845 9.53964C41.6384 6.96549 38.55 5.67136 34.9503 5.67136C31.3502 5.67136 28.2566 6.9657 25.6998 9.53964C23.1533 12.1032 21.8735 15.2123 21.8735 18.8357C21.8735 22.4591 23.1533 25.5682 25.6998 28.1317ZM51.9207 6.55648V31.0821H54.8233V6.55648H51.9207ZM59.4496 31.1149H62.3522V16.9507C62.3522 14.6074 63.1676 12.6244 64.8109 10.9701C66.4541 9.31589 68.4239 8.49501 70.7516 8.49501C73.0678 8.49501 75.0324 9.31537 76.6762 10.9701L76.6774 10.9714C78.3311 12.6259 79.1511 14.6085 79.1511 16.9507V31.1149H82.0374V16.9507C82.0374 13.8192 80.9315 11.1259 78.7332 8.9014L78.7311 8.89936C76.5219 6.68677 73.852 5.57301 70.7516 5.57301C67.641 5.57301 64.9656 6.68634 62.7559 8.89935L62.7538 8.9014C60.5555 11.1259 59.4496 13.8192 59.4496 16.9507V31.1149ZM89.5826 10.5884V0.0163912H86.68V18.8357C86.68 22.459 87.9597 25.5731 90.5054 28.1472L90.5071 28.149C93.0641 30.7117 96.1575 32 99.7568 32C103.356 32 106.445 30.7116 108.991 28.1481C111.548 25.5742 112.834 22.4598 112.834 18.8357C112.834 15.2121 111.548 12.1032 108.992 9.54014C106.445 6.96566 103.357 5.67136 99.7568 5.67136C97.4225 5.67136 95.2421 6.26576 93.2252 7.45175C91.7991 8.2818 90.584 9.32813 89.5826 10.5884ZM89.5826 18.8357C89.5826 16.0008 90.5715 13.597 92.5622 11.593C94.553 9.58894 96.9408 8.59336 99.7568 8.59336C102.573 8.59336 104.961 9.58894 106.951 11.593C108.942 13.597 109.931 16.0008 109.931 18.8357C109.931 21.6705 108.942 24.0743 106.951 26.0784C104.961 28.0824 102.573 29.078 99.7568 29.078C96.9408 29.078 94.553 28.0824 92.5622 26.0784C90.5715 24.0743 89.5826 21.6705 89.5826 18.8357ZM135 6.5237H131.52L124.594 16.3448L117.668 6.5237H114.187L122.854 18.8029L114.187 31.0821H117.667L124.594 21.2763L131.52 31.0821H135L126.334 18.8029L135 6.5237Z" fill="url(#paint0_linear_4_801)"/>
<defs>
<linearGradient id="paint0_linear_4_801" x1="82.9315" y1="16.1438" x2="85.8114" y2="16.1438" gradientUnits="userSpaceOnUse">
<stop stop-color="#101032"/>
<stop offset="1" stop-color="#00C5F6"/>
</linearGradient>
</defs>
</svg>
