<svg width="104" height="24" viewBox="0 0 104 24" fill="none" xmlns="http://www.w3.org/2000/svg">
<path fill-rule="evenodd" clip-rule="evenodd" d="M0 0V23.287H2.23606V18.3338L5.04914 15.598L12.6008 23.3116H15.7484L6.63664 14.0597L16.0318 4.94195H12.8706L4.76787 12.8083L3.79001 13.7544L2.23606 15.2606V0H0ZM21.3822 8.69475C22.9158 7.19171 24.7553 6.44502 26.9247 6.44502C29.094 6.44502 30.9335 7.19171 32.4671 8.69475C34.0007 10.1978 34.7626 12.0006 34.7626 14.1268C34.7626 16.2529 34.0007 18.0557 32.4671 19.5588C30.9335 21.0618 29.094 21.8085 26.9247 21.8085C24.7553 21.8085 22.9158 21.0618 21.3822 19.5588C19.8486 18.0557 19.0868 16.2529 19.0868 14.1268C19.0868 12.0006 19.8486 10.1978 21.3822 8.69475ZM19.7984 21.0988C21.7681 23.0292 24.1513 24 26.9247 24C29.6978 24 32.077 23.0294 34.0385 21.0988C36.0083 19.1764 36.9987 16.8446 36.9987 14.1268C36.9987 11.4089 36.0083 9.07711 34.0385 7.15473C32.077 5.22412 29.6978 4.25352 26.9247 4.25352C24.1513 4.25352 21.7681 5.22428 19.7984 7.15473C17.8366 9.07738 16.8507 11.4092 16.8507 14.1268C16.8507 16.8443 17.8366 19.1761 19.7984 21.0988ZM39.9982 4.91736V23.3116H42.2342V4.91736H39.9982ZM45.7982 23.3362H48.0343V12.713C48.0343 10.9555 48.6625 9.46828 49.9284 8.2276C51.1943 6.98692 52.7118 6.37126 54.505 6.37126C56.2893 6.37126 57.8027 6.98653 59.069 8.2276L59.07 8.22851C60.3439 9.46939 60.9757 10.9564 60.9757 12.713V23.3362H63.1992V12.713C63.1992 10.3644 62.3472 8.34442 60.6537 6.67605L60.6521 6.67452C58.9502 5.01508 56.8934 4.17976 54.505 4.17976C52.1086 4.17976 50.0476 5.01476 48.3453 6.67452L48.3437 6.67605C46.6502 8.34442 45.7982 10.3644 45.7982 12.713V23.3362ZM69.0117 7.94131V0.0122934H66.7757V14.1268C66.7757 16.8443 67.7616 19.1798 69.7227 21.1104L69.724 21.1117C71.6939 23.0338 74.0769 24 76.8497 24C79.6225 24 82.0017 23.0337 83.9634 21.1111C85.9331 19.1806 86.9236 16.8449 86.9236 14.1268C86.9236 11.4091 85.9334 9.07741 83.9638 7.1551C82.0023 5.22424 79.623 4.25352 76.8497 4.25352C75.0514 4.25352 73.3717 4.69932 71.818 5.58881C70.7193 6.21135 69.7832 6.9961 69.0117 7.94131ZM69.0117 14.1268C69.0117 12.0006 69.7736 10.1978 71.3072 8.69475C72.8408 7.19171 74.6803 6.44502 76.8497 6.44502C79.019 6.44502 80.8585 7.19171 82.3921 8.69475C83.9257 10.1978 84.6876 12.0006 84.6876 14.1268C84.6876 16.2529 83.9257 18.0557 82.3921 19.5588C80.8585 21.0618 79.019 21.8085 76.8497 21.8085C74.6803 21.8085 72.8408 21.0618 71.3072 19.5588C69.7736 18.0557 69.0117 16.2529 69.0117 14.1268ZM104 4.89277H101.319L95.9833 12.2586L90.6477 4.89277H87.9665L94.6427 14.1022L87.9665 23.3116H90.6475L95.9833 15.9573L101.319 23.3116H104L97.3238 14.1022L104 4.89277Z" fill="url(#paint0_linear_4731_6464)"/>
<defs>
<linearGradient id="paint0_linear_4731_6464" x1="63.888" y1="12.1079" x2="66.1066" y2="12.1079" gradientUnits="userSpaceOnUse">
<stop stop-color="white"/>
<stop offset="1" stop-color="#00C5F6"/>
</linearGradient>
</defs>
</svg>
